<?xml version="1.0" encoding="UTF-8"?>
<svg id="Capa_1" data-name="Capa 1" xmlns="http://www.w3.org/2000/svg" viewBox="0 0 569.48 110.27">
  <defs>
    <style>
      .cls-1 {
        fill: #fff;
        stroke-width: 0px;
      }
    </style>
  </defs>
  <g>
    <path class="cls-1" d="m100.32,47.09v53.14c0,1.63-1.32,2.95-2.95,2.95h-17.71c-1.63,0-2.95-1.32-2.95-2.95v-29.52c0-1.63-1.32-2.95-2.95-2.95h-29.52c-1.63,0-2.95-1.32-2.95-2.95v-17.71c0-1.63,1.32-2.95,2.95-2.95h53.14c1.63,0,2.95,1.32,2.95,2.95Z"/>
    <path class="cls-1" d="m100.32,11.66v17.71c0,1.63-1.32,2.95-2.95,2.95H32.42c-1.63,0-2.95,1.32-2.95,2.95v41.33c0,1.63,1.32,2.95,2.95,2.95h29.52c1.63,0,2.95,1.32,2.95,2.95v17.71c0,1.63-1.32,2.95-2.95,2.95H8.81c-1.63,0-2.95-1.32-2.95-2.95V11.66c0-1.63,1.32-2.95,2.95-2.95h88.56c1.63,0,2.95,1.32,2.95,2.95Z"/>
  </g>
  <path class="cls-1" d="m156.57,53.03h27.48v17.41c0,13.18-6.78,18.92-20.24,18.92h-13.65c-13.55,0-20.33-5.74-20.33-18.92v-27.3c0-13.08,6.78-18.73,20.33-18.73h13.65c13.46,0,20.24,5.65,20.24,18.73v3.29h-13.65v-2.73c0-5.27-2.35-7.34-7.62-7.34h-11.67c-5.27,0-7.62,2.07-7.62,7.34v26.35c0,5.27,2.35,7.34,7.62,7.34h11.77c5.36,0,7.72-2.07,7.72-7.34v-5.84h-14.02v-11.2Z"/>
  <path class="cls-1" d="m190.41,40.7h11.67l.66,5.36c2.35-4.24,6.68-6.21,13.08-6.21h7.44v11.58h-14.21c-3.86,0-5.46,1.41-5.46,5.18v31.81h-13.18v-47.72Z"/>
  <rect class="cls-1" x="228.06" y="24.41" width="13.18" height="12.2"/>
  <rect class="cls-1" x="228.06" y="40.7" width="13.18" height="47.72"/>
  <path class="cls-1" d="m280.2,83.05c-2.26,4.33-6.68,6.31-13.18,6.31h-2.73c-11.01,0-16.57-4.8-16.57-15.62v-18.45c0-10.82,5.55-15.53,16.57-15.53h2.73c5.74,0,9.79,1.51,12.24,4.89v-20.24h13.18v64h-11.58l-.66-5.36Zm-.94-26.54c0-3.76-1.6-5.18-5.37-5.18h-7.53c-3.77,0-5.46,1.41-5.46,5.18v16.09c0,3.67,1.69,5.18,5.46,5.18h7.53c3.77,0,5.37-1.51,5.37-5.18v-16.09Z"/>
  <g>
    <path class="cls-1" d="m367.23,64.62v5.97c0,13.27-6.73,19.05-20.37,19.05h-13.27c-13.65,0-20.37-5.78-20.37-19.05v-27.48c0-13.17,6.73-18.86,20.37-18.86h13.27c13.64,0,20.37,5.69,20.37,18.86v6.25h-13.74v-5.69c0-5.31-2.27-7.39-7.67-7.39h-11.18c-5.4,0-7.68,2.08-7.68,7.39v26.53c0,5.31,2.27,7.39,7.68,7.39h11.18c5.4,0,7.67-2.08,7.67-7.39v-5.59h13.74Z"/>
    <path class="cls-1" d="m392.91,89.64c-10.23,0-15.35-4.64-15.35-14.88V20.28h13.27v53.16c0,3.22,1.42,4.55,4.74,4.55h4.26v11.66h-6.92Z"/>
    <path class="cls-1" d="m407.03,56.38c0-11.56,5.97-16.68,17.91-16.68h10.23c11.84,0,17.81,5.12,17.81,16.68v16.49c0,11.65-5.97,16.77-17.81,16.77h-10.23c-11.94,0-17.91-5.12-17.91-16.77v-16.49Zm19.05,21.6h7.96c3.98,0,5.68-1.52,5.68-5.5v-15.63c0-3.98-1.71-5.5-5.68-5.5h-7.96c-3.98,0-5.78,1.52-5.78,5.5v15.63c0,3.98,1.8,5.5,5.78,5.5Z"/>
    <path class="cls-1" d="m476.96,40.65v31.84c0,3.98,1.8,5.5,5.78,5.5h6.06c3.98,0,5.69-1.52,5.69-5.5v-31.84h13.27v32.22c0,11.65-5.97,16.77-17.81,16.77h-8.43c-11.84,0-17.81-5.12-17.81-16.77v-32.22h13.27Z"/>
    <path class="cls-1" d="m551.16,83.29c-2.27,4.36-6.73,6.35-13.27,6.35h-2.75c-11.09,0-16.68-4.83-16.68-15.73v-18.57c0-10.9,5.59-15.63,16.68-15.63h2.75c5.78,0,9.85,1.52,12.32,4.93v-24.35h13.27v68.41h-11.66l-.66-5.4Zm-.95-26.72c0-3.79-1.61-5.21-5.4-5.21h-7.58c-3.79,0-5.5,1.42-5.5,5.21v16.2c0,3.7,1.71,5.21,5.5,5.21h7.58c3.79,0,5.4-1.52,5.4-5.21v-16.2Z"/>
  </g>
</svg>